<svg version="1.1" xmlns="http://www.w3.org/2000/svg" xmlns:xlink="http://www.w3.org/1999/xlink" width="316.34533" height="280.73558" viewBox="0,0,316.34533,280.73558"><g transform="translate(-81.81015,-23.27648)"><g data-paper-data="{&quot;isPaintingLayer&quot;:true}" fill="#ff09a3" fill-rule="nonzero" stroke="none" stroke-width="0.5" stroke-linecap="butt" stroke-linejoin="miter" stroke-miterlimit="10" stroke-dasharray="" stroke-dashoffset="0" style="mix-blend-mode: normal"><path d="M361.55981,281.01718c0,0 12.92535,-22.50915 20.34678,-52.60937c5.60189,-30.36459 2.20417,-53.52375 -2.91839,-71.73179c-5.33702,-18.55992 -15.20055,-32.98586 -26.24295,-46.33835c-17.73762,-20.4412 -30.34731,-26.59417 -42.41233,-33.05732c-20.09239,-8.47996 -27.59591,-9.90962 -38.04696,-11.30907c-28.60005,-1.90801 -60.41211,0.34259 -89.69638,29.83722c-9.66801,10.88094 -32.74338,33.21431 -31.42727,70.7709c1.00117,21.22081 8.8999,36.03787 18.93375,49.30362c5.90812,7.55265 21.58926,18.19546 24.19215,20.27778l-54.8216,67.85126c-3.64899,-2.91919 -25.13905,-26.8153 -28.01326,-30.47311c-2.05776,-2.61877 -10.2916,-16.51392 -13.77783,-23.36113c-5.22675,-10.2657 -13.92101,-36.24426 -15.28035,-58.55544c-2.42163,-27.83063 2.98682,-49.07779 10.47411,-69.46464c6.32844,-17.73331 18.77549,-34.39125 23.61901,-39.74438c9.94452,-12.23449 18.11895,-20.33112 25.73488,-26.1263c13.0147,-10.5658 34.30742,-20.39798 46.46149,-24.91554c22.58306,-7.25286 44.4992,-8.90129 60.38561,-7.77085c22.86541,0.81831 42.82877,7.34432 53.88093,11.47161c13.72882,4.517 37.96824,21.78842 48.13716,33.10865c10.17685,10.50423 22.65804,25.09257 33.63311,49.23972c5.67728,9.88719 11.41615,32.64481 12.49619,46.2375c1.65006,21.52585 0.81466,25.94044 -0.16091,39.4091c-0.45501,6.28184 -1.2728,10.91581 -5.42383,24.2402c-13.42608,38.73332 -30.0731,53.70977 -30.0731,53.70977z"/></g></g></svg>